# xmcd
#
# Track frame offsets:
#	150
#	22869
#	41889
#	56437
#	73538
#	89301
#	109857
#	121594
#	136076
#	147318
#	157972
#	175773
#	189467
#	202949
#	215710
#	236280
#
# Disc length: 3310 seconds
#
# Revision: 1
# Processed by: cddbd v1.5.2PL0 Copyright (c) Steve Scherf et al.
# Submitted via: audiograbber 1.83.01
#
DISCID=d20cec10
DTITLE=Various Artist - Essential Texas Blues - Disc 2
DYEAR=1997
DGENRE=Blues
TTITLE0=Lightnin' Hopkins - Tom Moore Blues
TTITLE1=Johnny Winter - It's My Life, Baby
TTITLE2=Angela Strehli - Go On
TTITLE3=Tutu Jones - It's Been A Mistake
TTITLE4=W.C. Clarke - Why Do Things Happen To Me?
TTITLE5=Willie Mae Thornton - Ball 'n Chain
TTITLE6=Mance Lipscomb - Ella Speed
TTITLE7=Lowell Fulson - Reconsider Baby
TTITLE8=Pee Wee Crayton - Texas Hop
TTITLE9=Fabulous Thunderbirds - How Do You Spell Love?
TTITLE10=Omar and The Howlers - Hard Times In The Land Of Plenty
TTITLE11=Doyle Bramhall - Change It
TTITLE12=Juke Boy Bonner - Going Back To The Country
TTITLE13=Gatemouth Brown - My Time Is Expensive
TTITLE14=Joe Guitar Hughes - If You Want To See The Blues
TTITLE15=Ivory Joe Hunter - I Feel So Good
EXTD=
EXTT0=
EXTT1=
EXTT2=
EXTT3=
EXTT4=
EXTT5=
EXTT6=
EXTT7=
EXTT8=
EXTT9=
EXTT10=
EXTT11=
EXTT12=
EXTT13=
EXTT14=
EXTT15=
PLAYORDER=
